<?xml version="1.0" standalone="no"?><!DOCTYPE svg PUBLIC "-//W3C//DTD SVG 1.1//EN" "http://www.w3.org/Graphics/SVG/1.1/DTD/svg11.dtd"><svg t="1527582552597" class="icon" style="" viewBox="0 0 1024 1024" version="1.1" xmlns="http://www.w3.org/2000/svg" p-id="5170" xmlns:xlink="http://www.w3.org/1999/xlink" width="200" height="200"><defs><style type="text/css"></style></defs><path d="M256.8 577.056l512.512 0c17.696 0 32-14.304 32-32s-14.304-32-32-32L256.8 513.056c-17.696 0-32 14.304-32 32S239.136 577.056 256.8 577.056z" p-id="5171"></path><path d="M256.8 769.056l512.512 0c17.696 0 32-14.304 32-32s-14.304-32-32-32L256.8 705.056c-17.696 0-32 14.304-32 32S239.136 769.056 256.8 769.056z" p-id="5172"></path><path d="M448 192l160 0c17.696 0 32-14.304 32-32s-14.304-32-32-32l-160 0c-17.696 0-32 14.304-32 32S430.304 192 448 192z" p-id="5173"></path><path d="M847.008 128 800 128c-17.696 0-32 14.304-32 32s14.304 32 32 32l47.008 0C852.992 192 864 204.16 864 224l0 96L160 320 160 224c0-17.664 14.048-32 31.328-32L256 192c17.696 0 32-14.304 32-32S273.696 128 256 128L191.328 128C138.752 128 96 171.072 96 224l0 640c0 52.928 43.072 96 96 96l640 0c52.928 0 96-43.072 96-96L928 224C928 171.072 891.648 128 847.008 128zM864 864c0 17.664-14.368 32-32 32L192 896c-17.632 0-32-14.336-32-32L160 384l704 0L864 864z" p-id="5174"></path><path d="M704 224c17.696 0 32-14.304 32-32L736 96c0-17.696-14.304-32-32-32s-32 14.304-32 32l0 96C672 209.696 686.304 224 704 224z" p-id="5175"></path><path d="M352 224c17.696 0 32-14.304 32-32L384 96c0-17.696-14.304-32-32-32s-32 14.304-32 32l0 96C320 209.696 334.304 224 352 224z" p-id="5176"></path></svg>